<svg width="19" height="12" viewBox="0 0 19 12" fill="none" xmlns="http://www.w3.org/2000/svg">
<path d="M0.132631 5.52808C0.132631 5.52808 0.0664062 5.52808 0.0664063 5.59549L0.132631 5.52808Z" fill="#555526"/>
<path d="M0.0684959 5.52808C0.00227079 5.59549 0.0684959 5.59549 0.0684959 5.52808V5.52808Z" fill="#555526"/>
<path d="M12.6461 5.93262C12.6461 5.93262 12.5799 6.00003 12.6461 5.93262C12.5799 6.00003 12.6461 6.00003 12.6461 5.93262Z" fill="#555526"/>
<path d="M13.506 6.06903C13.506 6.06903 13.4397 6.00161 13.506 6.06903C13.4397 6.06903 13.4397 6.06903 13.506 6.06903Z" fill="#555526"/>
<path d="M9.4669 6.33708C9.73171 6.33708 9.99652 6.26967 10.2613 6.26967C10.3275 6.20225 10.3937 6.20225 10.4599 6.20225V6.26967H10.5261C10.5261 6.26967 10.4599 6.26967 10.5261 6.33708V6.26967C10.5261 6.26967 10.6585 6.26967 10.5923 6.33708H10.8571C10.9233 6.33708 10.8571 6.26967 10.9233 6.26967C10.9233 6.26967 10.9233 6.26967 10.9233 6.33708C11.122 6.4045 11.122 6.13484 11.3206 6.20225H11.3868C11.3868 6.13484 11.3868 6.26967 11.3206 6.20225C11.3206 6.13484 11.3868 6.13484 11.3868 6.13484C11.453 6.13484 11.453 6.13484 11.453 6.13484C11.5192 6.20225 11.5854 6.13484 11.6516 6.20225C11.6516 6.20225 11.7178 6.13484 11.784 6.13484C11.8502 6.20225 11.784 6.20225 11.8502 6.20225V6.13484C11.9164 6.13484 11.9164 6.13484 11.9164 6.20225C11.9826 6.20225 11.9826 6.13484 12.0488 6.20225L11.9826 6.26967C12.0488 6.26967 12.0488 6.26967 12.115 6.26967C12.115 6.26967 12.115 6.26967 12.0488 6.26967C12.115 6.33708 12.115 6.26967 12.115 6.26967C12.115 6.26967 12.0488 6.26967 12.115 6.20225C12.1812 6.20225 12.1812 6.13484 12.1812 6.20225L12.115 6.26967C12.1812 6.00001 12.115 6.00001 12.1812 6.00001C12.2474 6.00001 12.3136 6.00001 12.3798 6.00001L12.446 5.93259C12.3798 5.93259 12.446 5.86517 12.3798 5.86517C12.446 5.93259 12.446 5.79776 12.5784 5.79776C12.5784 5.79776 12.5784 5.86517 12.5122 5.79776C12.5122 5.86517 12.446 5.93259 12.446 5.93259C12.5122 5.93259 12.5122 5.93259 12.5122 5.93259V5.86517H12.5784C12.5784 5.79776 12.5122 5.79776 12.5784 5.79776C12.6446 5.79776 12.5784 5.86517 12.6446 5.86517C12.7108 5.86517 12.6446 5.79776 12.777 5.79776C12.8432 5.79776 12.9094 5.79776 12.9094 5.86517V5.93259C12.8432 6.00001 12.9756 5.93259 12.9094 6.00001C12.8432 6.00001 12.9094 6.00001 12.9756 6.00001V5.93259C13.108 5.79776 12.9756 6.00001 13.108 6.00001C13.1742 5.93259 13.108 6.00001 13.108 5.93259C13.1742 5.93259 13.1742 6.00001 13.2404 5.93259L13.3066 6.00001C13.3728 6.00001 13.439 6.00001 13.439 6.00001C13.3728 5.93259 13.3728 6.06742 13.3066 6.00001V5.93259C13.3728 5.93259 13.439 5.93259 13.5052 5.93259C13.5052 5.93259 13.5052 5.93259 13.5052 5.86517C13.5714 5.86517 13.6376 5.79776 13.7038 5.79776C13.6376 6.00001 13.6376 6.00001 13.5714 6.00001C13.6376 6.06742 13.6376 6.00001 13.7038 6.00001C13.7038 6.06742 13.6376 6.00001 13.6376 6.06742H13.7038C13.7038 6.00001 13.77 6.06742 13.8362 6.06742C13.9686 6.06742 13.9686 6.00001 14.0348 5.93259V6.00001C14.0348 6.00001 14.0348 6.00001 13.9686 6.00001C14.0348 6.00001 14.0348 6.06742 14.0348 6.06742C14.101 6.06742 14.0348 6.00001 14.0348 6.00001H14.2334C14.2334 5.93259 14.1672 5.93259 14.2334 5.93259C14.2997 5.93259 14.2997 5.93259 14.3659 5.93259V6.00001H14.4321C14.3659 6.00001 14.4983 6.00001 14.4983 5.93259H14.5645C14.5645 5.93259 14.5645 5.93259 14.4983 5.93259C14.4983 6.00001 14.5645 5.93259 14.5645 5.93259C14.5645 5.93259 14.6307 5.93259 14.6307 6.00001H14.6969V5.93259H14.7631V6.06742C14.8293 6.06742 14.7631 6.00001 14.8293 6.00001C14.8293 6.06742 14.8955 6.06742 14.8293 6.13484C14.8293 6.20225 14.9617 6.20225 15.0279 6.13484C15.0279 6.06742 14.9617 6.13484 14.9617 6.06742C15.0941 6.06742 15.0941 5.93259 15.2265 5.93259C15.2927 5.93259 15.2927 5.93259 15.2927 5.86517C15.2927 5.93259 15.3589 6.00001 15.4913 6.00001C15.4913 6.00001 15.4251 5.93259 15.4251 5.86517H15.4913C15.5575 5.86517 15.6237 5.93259 15.6237 5.86517L15.6899 5.93259V5.86517L15.7561 5.79776C15.8223 5.79776 15.8223 5.79776 15.8885 5.79776C15.8885 5.79776 15.8223 5.73034 15.8885 5.73034C15.8885 5.79776 16.0209 5.79776 16.0209 5.79776H16.0871V5.86517C16.0871 5.79776 16.1533 5.79776 16.2195 5.79776C16.2195 5.93259 16.2857 5.79776 16.2857 5.86517C16.2857 5.79776 16.4181 5.86517 16.4181 5.79776C16.4843 5.79776 16.4843 5.86517 16.4843 5.86517C16.4843 5.93259 16.6167 5.93259 16.6829 5.93259L16.7491 5.86517C16.7491 5.86517 16.8153 5.86517 16.7491 5.79776C16.7491 5.73034 16.8153 5.79776 16.8153 5.73034C16.8153 5.73034 16.8153 5.73034 16.8153 5.79776V5.86517C16.8153 5.86517 16.8815 5.73034 16.8153 5.66293L16.8815 5.59551V5.66293V5.59551C16.9477 5.59551 16.9477 5.59551 16.9477 5.66293C16.8815 5.66293 16.8815 5.79776 16.9477 5.79776C16.8815 5.79776 16.8815 5.86517 16.8815 5.86517C16.8815 5.86517 16.8815 5.86517 16.8815 5.93259C16.9477 5.93259 16.8815 5.86517 16.9477 5.86517C16.9477 5.93259 16.9477 5.93259 17.0139 6.00001H17.2125C17.2125 6.00001 17.2125 6.00001 17.2125 5.93259L17.2787 5.86517C17.2125 5.79776 17.4111 5.79776 17.3449 5.73034H17.4111C17.3449 5.79776 17.4774 5.79776 17.4774 5.86517C17.4774 5.86517 17.4111 5.79776 17.4774 5.79776C17.5436 5.79776 17.5436 5.79776 17.5436 5.86517H17.6098C17.6098 5.86517 17.5436 5.79776 17.6098 5.79776H17.676C17.676 5.86517 17.676 5.86517 17.6098 5.93259C17.676 5.93259 17.7422 5.93259 17.7422 5.86517H17.8084C17.8084 5.86517 17.7422 5.79776 17.8084 5.79776L17.8746 5.73034C17.8746 5.73034 17.8746 5.73034 17.8746 5.79776C17.9408 5.79776 17.9408 5.79776 17.9408 5.73034C18.007 5.73034 18.007 5.73034 17.9408 5.79776C18.007 5.79776 18.0732 5.79776 18.0732 5.79776C18.1394 5.79776 18.0732 5.79776 18.0732 5.73034C18.1394 5.86517 18.2718 5.79776 18.4042 5.73034C18.4042 5.66293 18.4042 5.73034 18.4704 5.66293C18.4704 5.66293 18.5366 5.73034 18.4704 5.73034H18.5366C18.6028 5.79776 18.4704 5.79776 18.4704 5.86517C18.5366 5.86517 18.6028 5.73034 18.669 5.79776C18.669 5.86517 18.7352 5.79776 18.7352 5.86517H18.669C18.8014 5.86517 18.7352 5.79776 18.8014 5.73034C18.8676 5.86517 18.8676 5.86517 18.8676 5.93259H18.9338C18.9338 5.93259 18.8676 5.86517 18.8676 5.79776C18.9338 5.86517 19 5.79776 19 5.79776C18.8676 5.73034 18.9338 5.79776 18.8014 5.73034C18.8014 5.73034 18.8014 5.79776 18.7352 5.79776C18.8014 5.79776 18.7352 5.73034 18.7352 5.73034C18.7352 5.79776 18.669 5.73034 18.669 5.73034C18.669 5.73034 18.7352 5.66293 18.669 5.59551V5.66293C18.669 5.66293 18.669 5.59551 18.6028 5.59551C18.6028 5.5281 18.6028 5.5281 18.669 5.5281C18.6028 5.46068 18.5366 5.59551 18.4704 5.59551H18.4042C18.338 5.59551 18.4704 5.5281 18.4042 5.5281H18.338H18.2718C18.2718 5.5281 18.2718 5.46068 18.338 5.46068L18.2718 5.5281C18.2718 5.5281 18.2056 5.46068 18.2718 5.46068H18.1394V5.39326C18.0732 5.39326 17.9408 5.5281 18.007 5.39326C17.9408 5.46068 17.8746 5.39326 17.7422 5.46068C17.8084 5.39326 17.676 5.39326 17.7422 5.39326C17.676 5.39326 17.676 5.46068 17.6098 5.46068C17.5436 5.46068 17.6098 5.39326 17.6098 5.32585H17.5436V5.46068C17.4774 5.46068 17.5436 5.39326 17.4774 5.39326V5.46068C17.4774 5.46068 17.4774 5.5281 17.4111 5.5281H17.3449C17.4111 5.5281 17.2787 5.5281 17.3449 5.46068C17.2787 5.46068 17.2787 5.46068 17.2125 5.46068V5.5281C17.1463 5.5281 17.2125 5.46068 17.1463 5.46068V5.5281C17.0801 5.46068 16.9477 5.59551 16.8815 5.5281C16.9477 5.5281 16.8815 5.46068 16.8815 5.46068C16.8153 5.46068 16.7491 5.46068 16.6829 5.5281C16.6829 5.46068 16.6829 5.46068 16.6167 5.39326C16.5505 5.39326 16.5505 5.39326 16.5505 5.46068C16.4843 5.46068 16.4181 5.46068 16.4181 5.46068C16.4181 5.5281 16.3519 5.46068 16.3519 5.46068V5.5281C16.2857 5.46068 16.2195 5.59551 16.1533 5.5281H16.0871C16.0871 5.5281 16.0871 5.5281 16.0871 5.46068H15.9547C15.8885 5.46068 15.8885 5.5281 15.8885 5.46068C15.9547 5.39326 15.8223 5.46068 15.8223 5.39326H15.8885C15.8223 5.39326 15.8223 5.39326 15.8223 5.46068C15.7561 5.46068 15.7561 5.39326 15.6899 5.39326H15.7561C15.7561 5.39326 15.7561 5.46068 15.6899 5.46068C15.6237 5.46068 15.5575 5.46068 15.5575 5.46068V5.39326C15.4251 5.46068 15.4913 5.39326 15.4251 5.39326H15.3589L15.2927 5.32585C15.2265 5.32585 15.2265 5.32585 15.2265 5.32585V5.25843C15.1603 5.25843 15.0941 5.19102 15.0279 5.25843C14.9617 5.32585 14.9617 5.19102 14.8955 5.25843C14.8955 5.25843 14.8955 5.25843 14.8955 5.19102H14.8293V5.1236V5.19102V5.1236C14.7631 5.05619 14.6969 5.1236 14.6969 5.05619V5.1236C14.5645 5.25843 14.3659 5.05619 14.1672 5.1236V5.05619L14.101 5.1236C14.0348 5.05619 14.101 5.05619 14.101 5.05619C14.0348 5.05619 14.101 5.1236 13.9686 5.1236C13.9024 5.1236 13.9686 5.05619 14.0348 5.05619C13.9686 5.05619 13.8362 5.1236 13.77 5.05619C13.7038 5.05619 13.6376 5.05619 13.5714 5.05619H13.5052V4.98877C13.439 4.98877 13.3728 4.98877 13.3728 4.98877C13.3728 4.98877 13.3728 5.05619 13.3066 5.05619C13.3066 4.98877 13.1742 5.05619 13.108 5.05619H13.1742C13.1742 5.05619 13.108 5.05619 13.108 5.1236L12.9756 5.19102C12.9756 5.1236 12.8432 5.19102 12.8432 5.1236C12.777 5.1236 12.9094 5.1236 12.8432 5.19102H12.777H12.7108V5.1236C12.6446 5.1236 12.6446 5.19102 12.6446 5.19102C12.5784 5.19102 12.5784 5.19102 12.5122 5.1236C12.3798 5.1236 12.3136 4.98877 12.2474 5.05619H12.1812V4.98877L12.0488 5.05619C11.9826 5.05619 11.8502 5.05619 11.784 5.05619C11.6516 5.1236 11.6516 5.05619 11.5854 5.05619H11.5192C11.453 5.1236 11.3868 4.98877 11.3868 5.05619L11.3206 5.1236C11.2544 5.1236 11.3206 5.1236 11.2544 5.05619C11.1882 5.05619 11.1882 5.1236 11.122 5.05619C11.0557 5.05619 11.0557 5.05619 10.9895 5.05619C10.9233 5.1236 10.9233 4.98877 10.8571 5.1236C10.7909 5.1236 10.7909 5.1236 10.7909 5.05619C10.7247 5.05619 10.5923 5.1236 10.5261 5.1236C10.5261 5.05619 10.5261 5.1236 10.4599 5.05619V5.1236C10.3275 5.1236 10.1951 5.05619 9.99652 5.05619V4.98877V5.05619C9.86411 5.05619 9.5993 5.05619 9.4669 5.05619C9.4007 5.05619 9.33449 5.1236 9.26829 5.1236C9.13589 5.1236 9.00348 5.19102 8.87108 5.1236C8.87108 5.1236 8.87108 5.1236 8.87108 5.05619C8.87108 5.1236 8.80488 5.05619 8.73868 5.05619C8.67247 5.1236 8.67247 5.05619 8.60627 5.05619L8.54007 5.1236V5.05619C8.54007 5.05619 8.47387 5.05619 8.40767 5.1236C8.40767 5.1236 8.34146 5.1236 8.40767 5.05619L8.20906 5.05619L8.27526 5.05619C8.27526 5.1236 8.20906 5.1236 8.20906 5.1236C8.27526 5.05619 8.20906 5.05619 8.20906 5.05619V5.1236C8.14286 5.1236 8.07665 5.19102 8.07665 5.1236C8.01045 5.1236 8.01045 5.05619 7.94425 5.05619C7.87805 5.1236 7.87805 5.05619 7.87805 5.1236C7.81185 5.1236 7.87805 5.05619 7.81185 5.05619C7.81185 5.1236 7.67944 5.05619 7.67944 5.05619C7.67944 5.19102 7.48084 4.98877 7.48084 5.1236L7.41463 5.05619C7.41463 5.05619 7.41463 5.1236 7.34843 5.1236C7.28223 5.1236 7.34843 5.05619 7.28223 5.05619V5.1236C7.08362 5.05619 6.75261 5.1236 6.4878 5.05619C6.3554 5.05619 6.223 5.1236 6.09059 5.1236H5.95819L6.02439 5.19102H5.95819C5.82578 5.1236 5.62718 5.1236 5.42857 5.19102C5.29617 5.32585 5.36237 5.1236 5.22996 5.19102C5.22996 5.19102 5.22996 5.19102 5.22996 5.1236C5.56098 5.1236 5.49477 5.1236 5.36237 5.19102C5.36237 5.05619 5.29617 5.19102 5.29617 5.1236V5.19102C5.29617 5.19102 5.22996 5.19102 5.22996 5.1236L5.16376 5.19102V5.1236C5.09756 5.1236 4.96516 5.19102 4.89895 5.1236C4.76655 5.19102 4.50174 5.1236 4.30314 5.1236C4.30314 5.19102 4.23693 5.19102 4.17073 5.19102L4.10453 5.1236C4.03833 5.1236 4.03833 5.19102 3.97213 5.19102C3.90592 5.19102 3.90592 5.19102 3.83972 5.25843C3.77352 5.25843 3.70732 5.25843 3.77352 5.19102C3.77352 5.25843 3.64111 5.19102 3.64111 5.19102C3.64111 5.19102 0.794425 4.98877 0.132404 5.5281C0.132404 5.59551 0.0662021 5.59551 0.0662021 5.66293C1.47973e-08 5.66293 0 5.59551 0 5.66293C0.0662021 5.66293 1.47973e-08 5.79776 0.0662021 5.79776H0C0 5.79776 0.0662021 5.73034 0.0662021 5.79776V5.73034C0.132404 5.73034 0.132404 5.73034 0.132404 5.79776C0.132404 5.79776 0.198606 5.66293 0.264808 5.73034C0.33101 5.73034 0.33101 5.79776 0.33101 5.79776C0.264808 5.79776 0.198606 5.86517 0.264808 5.86517C0.33101 5.86517 0.264808 5.86517 0.33101 5.86517C0.397213 5.86517 0.33101 5.93259 0.33101 5.93259H0.397212C0.397212 6.00001 0.33101 5.93259 0.397212 6.00001L0.463415 5.93259C0.463415 6.00001 0.529617 5.86517 0.595819 6.00001C0.529617 6.00001 0.595819 6.00001 0.595819 6.06742H0.728223C0.728223 6.06742 0.662021 6.06742 0.728223 6.06742H0.794425C0.794425 6.06742 0.926829 6.06742 0.926829 6.13484C0.926829 6.00001 0.860627 5.93259 0.926829 5.93259C0.926829 6.00001 0.860627 5.93259 0.926829 6.00001H0.993031C0.993031 6.00001 0.993031 6.06742 0.993031 6.00001C1.25784 6.06742 1.39024 6.20225 1.58885 6.20225C1.58885 6.26967 1.58885 6.20225 1.52265 6.26967C1.65505 6.20225 1.72125 6.33708 1.91986 6.33708V6.26967C2.11847 6.4045 2.31707 6.26967 2.58188 6.33708C2.58188 6.26967 2.64808 6.26967 2.71429 6.26967C2.71429 6.26967 2.71429 6.33708 2.78049 6.33708C2.78049 6.33708 2.71429 6.33708 2.78049 6.26967C2.97909 6.33708 3.37631 6.33708 3.64111 6.33708C4.03833 6.26967 4.50174 6.33708 4.89895 6.33708C4.83275 6.33708 4.83275 6.26967 4.89895 6.26967C5.03136 6.4045 5.09756 6.26967 5.22996 6.33708C5.49477 6.26967 5.69338 6.4045 5.89199 6.26967V6.33708C5.95819 6.33708 5.95819 6.33708 5.95819 6.33708C6.02439 6.33708 6.15679 6.33708 6.15679 6.33708V6.26967C6.223 6.26967 6.15679 6.33708 6.223 6.26967L6.2892 6.20225C6.2892 6.26967 6.4216 6.20225 6.4878 6.26967C6.55401 6.26967 6.68641 6.20225 6.75261 6.20225C6.75261 6.26967 6.88502 6.26967 6.95122 6.26967C7.08362 6.26967 7.28223 6.20225 7.48084 6.26967V6.20225H7.54704C7.61324 6.26967 7.67944 6.20225 7.67944 6.20225C7.67944 6.13484 7.61324 6.20225 7.61324 6.20225C7.54704 6.20225 7.61324 6.13484 7.67944 6.13484H7.74564C7.74564 6.20225 7.81185 6.20225 7.81185 6.26967C7.94425 6.26967 8.07665 6.20225 8.20906 6.20225C8.20906 6.26967 8.34146 6.20225 8.27526 6.26967C8.34146 6.26967 8.27526 6.20225 8.27526 6.13484H8.34146V6.20225H8.40767C8.54007 6.13484 8.67247 6.26967 8.73868 6.20225C8.73868 6.20225 8.67247 6.20225 8.67247 6.13484C8.80488 6.06742 8.80488 6.20225 8.87108 6.13484V6.20225C8.93728 6.20225 8.93728 6.13484 9.00348 6.20225C9.00348 6.26967 8.93728 6.26967 8.93728 6.26967C9.00348 6.26967 9.06969 6.26967 9.06969 6.20225C9.13589 6.20225 9.13589 6.20225 9.13589 6.26967C9.13589 6.26967 9.06969 6.26967 9.13589 6.20225C9.20209 6.20225 9.33449 6.20225 9.4007 6.20225C9.4007 6.20225 9.4007 6.20225 9.4007 6.26967C9.33449 6.26967 9.33449 6.33708 9.4669 6.33708Z" fill="#555526"/>
<path d="M16.0218 5.93264C16.088 5.93264 16.088 5.86523 16.0218 5.93264C16.0218 5.86523 16.0218 5.86523 16.0218 5.93264Z" fill="#555526"/>
<path d="M9.15907 11.3242C9.15907 11.3242 9.09285 11.3242 9.15907 11.3242C9.09285 11.3242 9.15907 11.3916 9.15907 11.3242Z" fill="#555526"/>
<path d="M9.09448 0.403353C9.09448 0.403353 9.09448 0.335938 9.16071 0.335938L9.09448 0.403353Z" fill="#555526"/>
<path d="M8.96173 0.202417C9.02796 0.135002 8.96173 0.135002 8.96173 0.202417V0.202417Z" fill="#555526"/>
<path d="M8.0361 11.0563C7.96988 11.0563 7.96988 10.9889 7.96988 11.0563C7.96988 11.0563 7.96988 11.1237 8.0361 11.0563Z" fill="#555526"/>
<path d="M0.35736 6C0.555966 6.13483 0.820774 6.33708 1.08558 6.47191C1.21799 6.53933 1.28419 6.60674 1.41659 6.74157C1.4828 6.80899 1.549 6.80899 1.549 6.8764C1.6152 6.8764 1.6814 6.8764 1.7476 6.94382L1.6814 7.01124H1.7476C1.7476 7.07865 1.6814 7.01124 1.7476 7.07865H1.81381C1.81381 7.07865 1.94621 7.21348 1.81381 7.21348L2.07861 7.34831C2.14482 7.41573 2.14482 7.2809 2.21102 7.34831C2.21102 7.34831 2.21102 7.34831 2.14482 7.34831C2.27722 7.55056 2.40962 7.34831 2.54203 7.48315C2.60823 7.48315 2.60823 7.55056 2.60823 7.48315C2.60823 7.41573 2.54203 7.48315 2.54203 7.41573C2.60823 7.34831 2.60823 7.41573 2.67443 7.34831C2.67443 7.41573 2.74063 7.34831 2.74063 7.41573C2.74063 7.48315 2.87304 7.55056 2.87304 7.61798C2.93924 7.61798 3.00544 7.55056 3.00544 7.61798C3.00544 7.68539 2.93924 7.68539 3.00544 7.68539C3.07165 7.75281 3.00544 7.75281 3.00544 7.75281C3.07165 7.82022 3.07165 7.75281 3.13785 7.82022H3.07165C3.13785 7.82022 3.13785 7.88764 3.20405 7.88764H3.13785C3.13785 7.95506 3.20405 7.88764 3.20405 7.95506V7.88764C3.20405 7.88764 3.27025 7.88764 3.27025 7.95506H3.20405C3.27025 7.95506 3.27025 7.95506 3.33645 8.02247C3.40266 8.02247 3.46886 8.08989 3.53506 8.1573C3.60126 8.1573 3.60126 8.1573 3.60126 8.1573C3.60126 8.08989 3.60126 8.08989 3.60126 8.08989C3.60126 8.1573 3.73367 8.08989 3.79987 8.1573H3.73367C3.66746 8.22472 3.60126 8.22472 3.53506 8.22472C3.60126 8.22472 3.60126 8.22472 3.60126 8.29213L3.66746 8.22472C3.66746 8.22472 3.66746 8.22472 3.73367 8.29213C3.73367 8.29213 3.73367 8.22472 3.79987 8.22472C3.86607 8.22472 3.79987 8.29213 3.79987 8.29213C3.86607 8.29213 3.86607 8.22472 3.93227 8.29213C3.93227 8.35955 4.06468 8.35955 3.99847 8.42697C3.99847 8.42697 3.99848 8.42697 3.93227 8.42697C3.86607 8.42697 3.99848 8.42697 3.93227 8.49438C3.93227 8.42697 3.99847 8.49438 4.06468 8.5618V8.49438C4.26328 8.42697 3.99847 8.5618 4.13088 8.62921C4.19708 8.62921 4.13088 8.62921 4.19708 8.62921C4.26328 8.69663 4.19708 8.69663 4.32949 8.76404C4.32949 8.76404 4.32949 8.83146 4.32949 8.89888C4.39569 8.89888 4.39569 8.96629 4.46189 8.96629C4.39569 8.89888 4.39569 8.96629 4.32949 8.83146H4.39569C4.46189 8.89888 4.52809 8.89888 4.52809 8.96629C4.59429 9.03371 4.6605 8.96629 4.7267 9.03371C4.7267 9.10112 4.6605 9.03371 4.6605 9.03371C4.6605 9.10112 4.7267 9.10112 4.7929 9.10112C4.7929 9.16854 4.7267 9.03371 4.7267 9.10112L4.7929 9.16854C4.8591 9.10112 4.8591 9.23596 4.9253 9.23596C5.05771 9.30337 5.12391 9.23596 5.19011 9.23596V9.30337C5.19011 9.23596 5.19011 9.30337 5.12391 9.30337C5.19011 9.30337 5.19011 9.4382 5.12391 9.4382C5.19011 9.4382 5.12391 9.37079 5.19011 9.37079L5.25631 9.4382C5.25631 9.37079 5.25631 9.37079 5.32252 9.37079C5.38872 9.37079 5.38872 9.4382 5.45492 9.4382C5.45492 9.4382 5.45492 9.50562 5.38872 9.4382L5.45492 9.50562C5.38872 9.4382 5.58733 9.50562 5.52112 9.4382V9.37079C5.52112 9.37079 5.52112 9.37079 5.45492 9.37079C5.45492 9.4382 5.52112 9.37079 5.52112 9.37079L5.58733 9.4382L5.65353 9.50562C5.65353 9.50562 5.65353 9.50562 5.71973 9.4382L5.78593 9.50562L5.71973 9.64045C5.78593 9.64045 5.78593 9.57303 5.85213 9.64045C5.78593 9.64045 5.91834 9.70787 5.78593 9.77528C5.78593 9.8427 5.85213 9.91011 5.91834 9.91011C5.98454 9.91011 5.91834 9.8427 5.91834 9.8427C6.05074 9.91011 6.11694 9.77528 6.18314 9.91011C6.24935 9.91011 6.24935 9.91011 6.31555 9.91011C6.24935 9.97753 6.31555 10.1124 6.38175 10.1124C6.38175 10.1124 6.38175 10.0449 6.38175 9.97753H6.44795C6.51415 9.97753 6.51415 10.1124 6.58036 10.0449V10.1798V10.1124C6.58036 10.1124 6.64656 10.1124 6.71276 10.1124C6.77896 10.1124 6.77896 10.1798 6.84517 10.2472C6.84517 10.2472 6.84516 10.1798 6.91137 10.1798C6.84516 10.2472 6.97757 10.2472 6.97757 10.3146C6.97757 10.3146 7.04377 10.382 7.04377 10.3146L6.97757 10.382C7.04377 10.3146 7.10997 10.382 7.17618 10.382C7.10997 10.4494 7.24238 10.382 7.24238 10.5169C7.30858 10.4494 7.37478 10.5843 7.37478 10.5169C7.44098 10.5169 7.37478 10.5843 7.37478 10.6517H7.44098C7.44098 10.7191 7.50719 10.7865 7.57339 10.7865H7.63959V10.8539H7.70579C7.77199 10.7865 7.77199 10.8539 7.8382 10.8539V10.9213C7.8382 10.9213 7.9706 10.8539 7.9706 10.7865H8.0368V10.8539L8.103 10.7865C8.16921 10.7865 8.16921 10.8539 8.16921 10.8539C8.10301 10.8539 8.0368 10.9213 8.103 10.9888C8.0368 10.9888 8.0368 10.9888 7.9706 10.9888C8.0368 10.9888 8.0368 10.9888 8.103 10.9888C8.0368 11.0562 8.103 11.0562 8.103 11.1236V11.0562C8.103 11.0562 8.103 11.0562 8.103 10.9888H8.23541C8.23541 10.8539 8.36781 10.9888 8.36781 10.9213C8.36781 10.9213 8.43402 10.9213 8.43402 10.9888C8.36781 10.9888 8.43402 11.0562 8.43402 11.1236V11.0562C8.50022 11.0562 8.50022 11.1236 8.50022 11.1236L8.56642 11.191V11.1236C8.56642 11.1236 8.63262 11.1236 8.63262 11.191C8.56642 11.191 8.56642 11.2584 8.56642 11.2584C8.63262 11.2584 8.69882 11.3258 8.69882 11.2584H8.76503C8.76503 11.191 8.69882 11.1236 8.76503 11.191H8.83123V11.2584C8.83123 11.2584 8.83123 11.2584 8.89743 11.2584V11.3258C8.96363 11.3258 8.96363 11.3258 8.96363 11.3258C9.02983 11.3258 9.02983 11.3258 8.96363 11.3933C9.02983 11.3933 9.09604 11.4607 9.09604 11.5281C9.16224 11.5281 9.09604 11.5281 9.16224 11.5281C9.16224 11.6629 9.36084 11.6629 9.42705 11.7303C9.42705 11.6629 9.42705 11.7303 9.49325 11.6629C9.42705 11.6629 9.55945 11.7978 9.42705 11.7303H9.49325C9.49325 11.7978 9.36084 11.7303 9.42705 11.7978C9.49325 11.7978 9.55945 11.7303 9.62565 11.8652C9.55945 11.9326 9.69186 11.8652 9.62565 11.9326H9.55945C9.69186 12 9.62565 11.8652 9.69186 11.8652C9.75806 11.9326 9.75806 11.9326 9.69186 12H9.75806C9.69186 12 9.69186 11.9326 9.75806 11.8652C9.75806 11.9326 9.89046 11.9326 9.89046 11.9326C9.82426 11.7978 9.82426 11.8652 9.75806 11.7303C9.75806 11.7303 9.69186 11.7978 9.62565 11.7303C9.69186 11.7303 9.62565 11.6629 9.62565 11.6629C9.62565 11.7303 9.55945 11.6629 9.55945 11.6629C9.55945 11.5955 9.62565 11.5955 9.55945 11.5281L9.29464 11.5955C9.29464 11.5955 9.36084 11.5281 9.29464 11.5281C9.36084 11.5281 9.29464 11.4607 9.42705 11.4607C9.36084 11.3258 9.29464 11.3933 9.22844 11.3933H9.16224C9.16224 11.3258 9.22844 11.3933 9.22844 11.3258L9.16224 11.2584H9.09604C9.16224 11.2584 9.16224 11.191 9.16224 11.191H9.02983C9.02983 11.191 8.96363 11.1236 9.02983 11.1236L8.89743 11.0562V10.9888C8.89743 10.9888 8.83123 10.9888 8.89743 10.9888C8.89743 10.9213 8.69882 10.9888 8.76503 10.9213C8.63262 10.9213 8.63262 10.8539 8.50022 10.8539C8.63262 10.8539 8.43402 10.7191 8.56642 10.7865C8.50022 10.7191 8.50022 10.7865 8.43402 10.7865C8.43402 10.7191 8.43402 10.7191 8.50022 10.7191H8.43402H8.36781C8.36781 10.6517 8.36781 10.6517 8.36781 10.6517L8.43402 10.7191V10.6517C8.43402 10.6517 8.43402 10.6517 8.36781 10.6517H8.30161C8.36781 10.6517 8.30161 10.6517 8.30161 10.5843C8.30161 10.5843 8.30161 10.5843 8.23541 10.5169V10.5843C8.16921 10.5843 8.23541 10.5169 8.16921 10.5169V10.5843C8.10301 10.4494 7.9706 10.5169 7.9706 10.4494C8.0368 10.4494 8.0368 10.4494 8.0368 10.4494C7.9706 10.4494 7.9044 10.382 7.77199 10.382C7.77199 10.3146 7.77199 10.3146 7.77199 10.2472C7.70579 10.2472 7.70579 10.2472 7.70579 10.2472C7.70579 10.1798 7.57339 10.1798 7.57339 10.1124H7.50719V10.1798C7.50719 10.0449 7.37478 10.1124 7.30858 10.0449H7.24238C7.24238 10.0449 7.24238 10.0449 7.30858 9.97753L7.17618 9.8427V9.91011C7.17618 9.91011 7.10997 9.91011 7.10997 9.8427C7.17618 9.8427 7.04377 9.77528 7.10997 9.77528H7.17618C7.10997 9.77528 7.10997 9.77528 7.10997 9.77528C7.04377 9.77528 7.10997 9.70786 7.04377 9.70786H7.10997C7.10997 9.70786 7.04377 9.77528 7.04377 9.70786C7.04377 9.70786 7.04377 9.64045 7.04377 9.70786C6.97757 9.70786 6.91137 9.64045 6.91137 9.64045V9.57303C6.77896 9.57303 6.84516 9.50562 6.77896 9.50562L6.64656 9.37079V9.30337V9.37079C6.64656 9.37079 6.58036 9.37079 6.58036 9.30337H6.64656C6.58036 9.23596 6.58036 9.16854 6.44795 9.16854C6.31555 9.16854 6.44795 9.10112 6.31555 9.10112H6.24935V9.03371L6.18314 9.10112V9.03371C6.18314 8.89888 6.11694 8.96629 6.11694 8.83146V8.89888C5.91834 8.89888 5.85213 8.62921 5.65353 8.5618V8.49438H5.58733C5.58733 8.42697 5.65353 8.49438 5.65353 8.42697C5.58733 8.42697 5.58733 8.49438 5.52112 8.42697C5.52112 8.35955 5.58733 8.42697 5.58733 8.42697C5.52112 8.42697 5.38872 8.35955 5.32252 8.29213C5.25631 8.29213 5.19011 8.22472 5.12391 8.1573C5.12391 8.1573 5.12391 8.1573 5.19011 8.1573L5.12391 8.08989H5.19011C5.12391 8.02247 5.05771 8.02247 5.05771 7.95506C5.05771 7.95506 5.05771 8.02247 4.99151 7.95506C4.99151 7.88764 4.8591 7.88764 4.8591 7.82022H4.9253C4.9253 7.75281 4.8591 7.82022 4.7929 7.82022L4.6605 7.75281C4.6605 7.68539 4.52809 7.68539 4.59429 7.61798C4.52809 7.55056 4.59429 7.68539 4.52809 7.61798C4.52809 7.55056 4.46189 7.61798 4.52809 7.55056H4.46189H4.52809C4.46189 7.55056 4.46189 7.55056 4.39569 7.55056C4.39569 7.48315 4.32949 7.48315 4.32949 7.41573C4.19708 7.48315 4.19708 7.34831 4.06468 7.34831L3.99847 7.2809H4.06468H3.93227C3.86607 7.21348 3.79987 7.14607 3.66746 7.07865C3.53506 7.01124 3.60126 7.01124 3.53506 6.94382L3.46886 6.8764C3.40266 6.8764 3.40266 6.74157 3.40266 6.80899C3.33645 6.80899 3.33645 6.80899 3.27025 6.80899C3.20405 6.74157 3.27025 6.74157 3.27025 6.74157C3.27025 6.67416 3.27025 6.67416 3.20405 6.60674C3.20405 6.60674 3.13785 6.60674 3.07165 6.53933C3.00544 6.53933 3.00544 6.40449 2.93924 6.47191C2.93924 6.40449 2.87304 6.40449 2.87304 6.33708C2.87304 6.33708 2.74063 6.33708 2.67443 6.26966C2.74063 6.20225 2.67443 6.26966 2.60823 6.20225V6.26966C2.47583 6.13483 2.40962 5.93258 2.27722 5.86517V5.79775H2.21102L2.14482 5.73034H2.07861C2.01241 5.73034 1.94621 5.66292 2.01241 5.66292H2.07861C2.01241 5.66292 2.07861 5.66292 2.07861 5.66292H2.01241C1.94621 5.66292 2.01241 5.66292 2.07861 5.66292H2.01241H2.07861C2.07861 5.66292 2.07861 5.66292 2.01241 5.59551H2.07861H2.14482C2.07861 5.59551 2.07861 5.52809 2.14482 5.52809L2.21102 5.59551C2.21102 5.59551 2.21102 5.59551 2.14482 5.52809V5.46067C2.14482 5.46067 2.21102 5.52809 2.21102 5.46067C2.21102 5.39326 2.27722 5.39326 2.21102 5.32584C2.27722 5.25843 2.27722 5.32584 2.27722 5.32584C2.27722 5.25843 2.34342 5.25843 2.40962 5.25843C2.40962 5.32584 2.60823 5.32584 2.54203 5.25843H2.60823C2.60823 5.25843 2.60823 5.19101 2.60823 5.1236C2.67443 5.19101 2.67443 5.19101 2.67443 5.25843V5.19101C2.93924 5.1236 3.13785 4.92135 3.40266 4.78652C3.46886 4.65169 3.60126 4.51685 3.73367 4.44944L3.86607 4.38202H3.73367C3.73367 4.38202 3.73367 4.31461 3.79987 4.31461C3.93227 4.24719 4.13088 4.17978 4.26328 4.04494C4.32949 3.91011 4.39569 4.04494 4.46189 3.97753C4.46189 3.97753 4.46189 3.97753 4.46189 4.04494C4.46189 3.97753 4.52809 3.91011 4.59429 3.77528C4.6605 3.8427 4.6605 3.70787 4.6605 3.77528V3.70787C4.7267 3.70787 4.7267 3.70787 4.7929 3.70787V3.64045C4.8591 3.57303 4.99151 3.50562 5.05771 3.50562C5.19011 3.4382 5.45492 3.30337 5.58733 3.16854C5.58733 3.10112 5.65353 3.10112 5.65353 3.03371H5.71973C5.78593 2.96629 5.78593 2.89888 5.85213 2.89888C5.91834 2.89888 5.98454 2.89888 5.98454 2.83146C6.05074 2.83146 6.11694 2.76405 6.11694 2.83146C6.05074 2.76405 6.24935 2.76405 6.24935 2.76405C6.24935 2.76405 8.83123 1.21348 9.16224 0.404494C9.16224 0.337079 9.22844 0.269663 9.16224 0.269663C9.22844 0.202247 9.22844 0.269663 9.22844 0.202247C9.16224 0.202247 9.16224 0.134831 9.09604 0.0674157V0C9.09604 0 9.09604 0.0674157 9.02983 0L9.09604 0.0674157C9.02983 0.0674157 9.02983 0.0674157 9.02983 0.0674157C9.02983 0.134831 9.09604 0.202247 8.96363 0.202247C8.89743 0.269663 8.89743 0.202247 8.89743 0.202247L8.83123 0.202247C8.89743 0.202247 8.89743 0.134831 8.89743 0.134831C8.83123 0.134831 8.89743 0.134831 8.89743 0.202247C8.89743 0.202247 8.83123 0.202247 8.83123 0.134831L8.76503 0.202247C8.76503 0.202247 8.83123 0.202247 8.76503 0.134831L8.69882 0.202247C8.63262 0.269663 8.63262 0.404494 8.56642 0.337079C8.63262 0.269663 8.56642 0.337079 8.56642 0.269663L8.43402 0.337079C8.43402 0.337079 8.43402 0.269663 8.43402 0.337079C8.36781 0.337079 8.43402 0.404494 8.36781 0.404494C8.36781 0.404494 8.30161 0.47191 8.23541 0.404494C8.103 0.404494 8.23541 0.47191 8.16921 0.539326C8.16921 0.539326 8.23541 0.47191 8.16921 0.47191L8.103 0.539326V0.47191C7.8382 0.606742 7.63959 0.47191 7.44098 0.674157C7.37478 0.674157 7.44098 0.606742 7.44098 0.606742C7.30858 0.741573 7.17618 0.674157 7.04377 0.741573C6.84517 0.741573 6.64656 0.94382 6.44795 1.07865H6.51415C6.51415 1.14607 6.44795 1.14607 6.44795 1.21348C6.44795 1.21348 6.44795 1.14607 6.38175 1.21348H6.44795C6.24935 1.2809 5.91834 1.48315 5.65353 1.68539C5.32252 1.95506 4.8591 2.1573 4.52809 2.42697C4.59429 2.35955 4.59429 2.49438 4.52809 2.49438C4.32949 2.42697 4.39569 2.62921 4.19708 2.62921C3.99848 2.83146 3.79987 2.83146 3.66746 3.10112C3.60126 3.10112 3.66746 3.16854 3.60126 3.16854C3.46886 3.10112 3.40266 3.23596 3.33645 3.23596V3.30337C3.33645 3.30337 3.33645 3.23596 3.33645 3.30337V3.37079C3.27025 3.30337 3.13785 3.4382 3.07165 3.4382C3.07165 3.50562 3.00544 3.57303 2.87304 3.64045C2.87304 3.64045 2.74063 3.70787 2.67443 3.70787C2.54203 3.77528 2.40962 3.97753 2.21102 4.04494L2.27722 4.11236H2.21102C2.14482 4.11236 2.14482 4.17978 2.07861 4.17978C2.14482 4.17978 2.14482 4.17978 2.14482 4.17978C2.21102 4.17978 2.21102 4.24719 2.14482 4.24719V4.31461C2.14482 4.31461 2.07861 4.31461 2.07861 4.24719C1.88001 4.31461 1.81381 4.44944 1.6152 4.51685C1.6152 4.44944 1.549 4.58427 1.4828 4.51685C1.4828 4.58427 1.549 4.51685 1.549 4.65169C1.549 4.65169 1.4828 4.7191 1.4828 4.65169C1.4828 4.65169 1.41659 4.65169 1.4828 4.58427L1.35039 4.7191C1.35039 4.7191 1.35039 4.7191 1.35039 4.65169C1.21799 4.85393 0.953178 4.92135 0.820774 5.05618C0.820774 5.05618 0.886976 4.98876 0.953178 5.05618C0.754572 5.19101 0.68837 5.1236 0.555966 5.25843V5.19101C0.555966 5.25843 0.555966 5.25843 0.423562 5.32584C0.35736 5.32584 0.423562 5.25843 0.489764 5.19101C0.35736 5.32584 0.224955 5.46067 0.291157 5.39326C0.291157 5.46067 0.158753 5.52809 0.0925512 5.52809C0.0925512 5.52809 0.224955 5.46067 0.224955 5.52809C0.158753 5.52809 0.158753 5.59551 0.0925512 5.59551C0.0925512 5.59551 -0.039853 5.66292 0.0263491 5.66292C0.0925512 5.73034 0.158753 5.79775 0.224955 5.79775H0.158753C0.35736 5.86517 0.224955 5.93258 0.35736 6Z" fill="#555526"/>
<path d="M6.84521 10.3162C6.84521 10.3162 6.91144 10.2488 6.84521 10.3162C6.84521 10.2488 6.84521 10.2488 6.84521 10.3162Z" fill="#555526"/>
</svg>
