<svg width="24" height="24" viewBox="0 0 24 24" fill="none" xmlns="http://www.w3.org/2000/svg">
<path d="M14.0797 10.8383C14.0797 10.7945 14.0705 10.7798 14.0705 10.7506L14.0797 10.8383Z" fill="#7FB89A"/>
<path d="M15.4068 9.27006H15.4177C15.4068 9.25438 15.396 9.2387 15.4068 9.27006Z" fill="#7FB89A"/>
<path d="M11.3616 14.9637C11.3524 14.9783 11.3524 14.9929 11.3524 15.0075C11.3524 14.9929 11.3616 14.9783 11.3616 14.9637Z" fill="#7FB89A"/>
<path d="M5.24474 18.4662C5.25524 18.4662 5.24474 18.451 5.24474 18.4358V18.4662Z" fill="#7FB89A"/>
<path d="M5.29697 18.4648C5.31797 18.5233 5.26546 18.4795 5.25495 18.4648C5.26546 18.5379 5.29697 18.5818 5.32848 18.611C5.34948 18.5818 5.29697 18.5087 5.29697 18.4648Z" fill="#7FB89A"/>
<path d="M12.6163 16.3584C12.6163 16.3736 12.6068 16.3888 12.6068 16.3888C12.6163 16.3736 12.6163 16.3584 12.6163 16.3584Z" fill="#7FB89A"/>
<path d="M1.69605 13.8017L1.73807 13.7578C1.71706 13.7871 1.70656 13.7871 1.69605 13.8017Z" fill="#7FB89A"/>
<path d="M14.0588 10.7665L14.0492 10.7361C14.0588 10.7361 14.0588 10.7513 14.0588 10.7665Z" fill="#7FB89A"/>
<path d="M16.5776 7.72876C16.5881 7.74338 16.5986 7.758 16.6091 7.758L16.5776 7.72876Z" fill="#7FB89A"/>
<path d="M22.914 0.581148C22.914 0.581148 22.9039 0.566528 22.8937 0.566528V0.639625C22.9039 0.610386 22.914 0.595767 22.914 0.581148Z" fill="#7FB89A"/>
<path d="M18.2914 5.78211C18.2914 5.76758 18.2914 5.76758 18.2809 5.75305C18.2388 5.76758 18.1653 5.86927 18.0813 6.00003L18.1233 6.07266L18.2914 5.78211Z" fill="#7FB89A"/>
<path d="M21.0513 4.8523L20.7986 4.95399C21.2936 4.15496 21.6305 3.93705 22.0202 3.19613L22.0097 3.25424C22.0939 3.19613 21.9359 2.86199 22.9153 2.17918L22.9258 2.1937C22.9469 2.15012 22.9364 2.13559 23.0101 2.09201L22.8311 2.1937C22.8837 2.06295 22.9048 1.90315 22.9996 1.75787C23.0312 1.74334 23.0522 1.75787 23.0733 1.7724L23.305 1.4092L23.4419 1.38015C23.484 1.23487 23.326 1.10412 23.5998 0.915254C23.4419 0.900726 23.6525 0.711864 23.5788 0.682809C23.5998 0.682809 23.642 0.668281 23.6735 0.668281C23.7894 0.493947 23.9895 0.145278 24 0C24 0 23.3471 0.40678 23.1259 0.464891C23.3155 0.261501 23.1575 0.392252 23.0943 0.392252L23.1049 0.435835C22.9785 0.552058 22.9258 0.479419 22.8627 0.523002C22.8627 0.523002 22.8732 0.53753 22.8837 0.53753V0.523002C22.8943 0.523002 22.9048 0.53753 22.9048 0.552058C22.9153 0.566586 22.9258 0.581114 22.8943 0.624697V0.610169C22.8627 0.682809 22.7784 0.769976 22.7363 0.813559L22.6942 0.755448C22.7047 0.973366 22.0518 1.27845 21.9465 1.42373C21.7885 1.48184 21.7358 1.75787 21.5779 1.90315C21.3567 2.16465 21.4094 1.94673 21.2725 2.0339C21.1145 2.16465 21.3462 2.07748 21.3041 2.15012L21.0935 2.28087C21.1777 2.15012 21.104 2.17918 21.0724 2.17918C20.9355 2.35351 20.6406 2.52784 20.6933 2.70218C20.4721 2.89104 20.4405 2.84746 20.3563 2.93462C20.3984 2.9201 20.4616 2.87651 20.4827 2.89104C20.3668 2.93462 20.4616 2.94915 20.4932 2.9201C20.4195 3.12349 19.7666 3.47215 19.8403 3.64649L19.8192 3.61743C19.8719 3.74818 19.9772 3.79177 19.9456 3.95157L19.8613 3.98063L19.8192 4.12591C19.7455 4.16949 19.7455 4.09685 19.7455 4.09685C19.6507 4.31477 19.4401 4.50363 19.2821 4.69249L19.6402 4.7506C19.4717 4.86683 19.1452 5.05569 19.1768 5.17191L19.0294 5.18644C18.6503 5.36077 18.903 5.50605 18.7661 5.59322L18.566 5.66586L18.6924 5.49152C18.5239 5.62228 18.4502 5.65133 18.3028 5.72397C18.3133 5.72397 18.3238 5.72397 18.3238 5.72397L18.3028 5.75303C18.3238 5.82566 18.2817 5.95642 18.1869 6.07264C18.05 6.23244 18.0079 6.45036 17.7236 6.6247L17.7446 6.79903L17.5445 6.94431L17.4814 6.85714C17.6393 6.65375 17.8921 6.23245 18.0816 5.95642L18.0606 5.91283C17.9447 6.07264 17.8394 6.29056 17.7657 6.37772C17.713 6.40678 17.5656 6.45036 17.5867 6.30508L17.5761 6.47942C17.197 7.01695 17.197 7.01695 16.7337 7.48184H16.7968C16.7337 7.61259 16.6705 7.74334 16.6073 7.71428C16.3545 8.0339 16.0702 8.32445 15.8385 8.42615L15.8701 8.57143C15.8175 8.62954 15.6384 8.60048 15.7122 8.76029L15.6384 8.94915C15.5647 9.03632 15.5647 9.15254 15.4384 9.21065C15.4278 9.21065 15.4278 9.21065 15.4173 9.22518C15.4173 9.22518 15.4173 9.22518 15.4278 9.22518C15.2383 9.39952 15.491 9.31235 15.2699 9.50121C15.1645 9.51574 15.2909 9.7046 15.1961 9.80629L15.0066 9.79177C14.796 9.93705 14.8697 10.1114 14.638 10.4165C14.4906 10.5182 14.3537 10.4746 14.3537 10.2712C14.3431 10.5327 14.3642 10.4165 14.2799 10.6634C14.2168 10.6344 14.2273 10.6053 14.2273 10.5182C14.0693 10.6199 14.1852 10.6634 14.1009 10.7797C14.143 10.9104 14.2273 11.1138 14.2062 11.1574L14.2589 11.1429C14.2062 11.3317 14.122 11.4915 13.9746 11.5932L13.943 11.5351L13.8482 11.724L13.7955 11.6659L13.6481 11.9128L13.6797 11.8983C13.6481 11.9564 13.5323 12.1598 13.4375 12.2324L13.4164 12.1889C13.1321 12.3632 13.0584 12.7409 12.8267 13.0896L12.8056 12.9734C12.6687 13.0169 12.8583 13.1186 12.7424 13.2203L12.6687 13.1332C12.6687 13.3656 12.5423 13.2639 12.4476 13.3075L12.5634 13.3801L12.437 13.5109C12.2896 13.6416 12.258 13.4673 12.2264 13.3801L12.2054 13.5835L12.1106 13.5109C12.1316 13.7143 12.0369 13.5835 11.9737 13.7869C11.9315 13.7579 11.9526 13.6998 11.9 13.7288L11.8262 14.1211L11.8894 13.9031L11.9842 14.0775C11.9526 14.339 11.8157 14.2663 11.7736 14.4261L11.7946 14.3099C11.6893 14.5278 11.6367 14.4697 11.5419 14.5424C11.584 14.5424 11.6472 14.5278 11.6156 14.6295C11.584 14.6876 11.5524 14.6005 11.5103 14.6441C11.5735 14.7603 11.5208 14.9346 11.3945 15.0073C11.3839 14.9927 11.3734 14.9782 11.3734 14.9637C11.3629 15.0073 11.3734 15.0508 11.3208 15.0799L11.2576 14.9346V15.138C11.1839 15.1816 11.1733 15.3559 11.1312 15.2688L11.1417 15.2107L10.7521 15.6901L10.6784 15.6029C10.731 15.7772 10.4467 15.8354 10.5625 15.9661C10.4362 15.9806 10.3308 16.4019 10.2466 16.1695C9.99386 16.4891 9.98333 16.8378 9.63581 17.1574C9.42519 17.1574 9.17244 17.5932 8.97236 17.8402C8.6459 18.4068 8.45634 18.7845 8.10882 19.3511C7.74024 19.4528 7.5928 20.1937 7.26635 20.4116C7.26635 20.4116 7.26635 20.4552 7.26635 20.4988C7.26635 20.5278 7.27688 20.5278 7.27688 20.5424C7.27688 20.5569 7.28741 20.5569 7.28741 20.5569C7.22422 20.5133 7.21369 20.5569 7.1821 20.6005C7.16104 20.6441 7.12944 20.7022 7.09785 20.615C7.09785 20.6441 7.08732 20.6731 7.08732 20.6877C7.08732 20.7022 7.07679 20.7022 7.07679 20.7022C7.07679 20.7167 7.08732 20.7458 7.08732 20.8475C7.06626 20.7458 7.02413 20.7748 7.0452 20.615L7.05573 20.6005C7.06626 20.5133 7.05573 20.5278 7.0452 20.5278C7.03467 20.5424 7.0136 20.5424 7.02413 20.4697C7.02413 20.4697 7.0136 20.5133 7.00307 20.5569C6.99254 20.6005 6.98201 20.6441 6.98201 20.6441L6.96095 20.5714L6.98201 20.5569C6.95042 20.5714 6.91882 20.5714 6.89776 20.5714C6.89776 20.586 6.84511 20.5278 6.82405 20.4988C6.79245 20.4697 6.76086 20.4261 6.7398 20.3971C6.63449 20.2518 6.55024 20.1065 6.46599 19.9613C6.2975 19.6707 6.13953 19.3801 5.80255 19.1477C5.96051 19.1186 5.65511 19.0751 5.74989 18.9298C5.73936 18.5956 5.48662 18.6392 5.36025 18.5521C5.36025 18.5521 5.34972 18.5666 5.33918 18.5666L5.17069 18.3051C5.40237 18.2906 4.93901 18.2615 5.1391 18.2615C4.75998 17.4915 4.05441 16.7651 3.54893 15.9661L3.53839 16.0387C3.40149 15.8354 3.2014 15.661 3.13822 15.4431C3.08556 15.2252 2.83282 15.2397 2.78017 15.1816C2.61167 15.0944 2.61167 14.8039 2.6538 14.8765C2.51689 14.7312 2.29574 14.7167 2.16937 14.4261C2.2115 14.2082 1.6007 13.9177 1.71654 13.7579L1.68495 13.816C1.54805 13.4092 1.20053 13.3075 1.04256 12.8862C1.04256 12.8862 1.05309 12.8862 1.07416 12.8862L0.252742 12.7119L0 13.4092L0.105309 14.4116L1.29531 15.8644L2.07459 17.2736L4.29662 20.2228L4.53883 20.3245C4.67573 20.7312 4.92848 21.0508 5.19175 21.385C5.31812 21.5448 5.45502 21.7191 5.5814 21.8789C5.64458 21.9661 5.69724 22.0533 5.74989 22.1404C5.80255 22.2276 5.8552 22.3002 5.89732 22.3729C5.94998 22.46 6.00263 22.5472 6.04476 22.6344L6.11847 22.5327C6.35015 22.8523 6.30803 22.9104 6.37122 23.0266C6.61343 23.3462 6.84511 23.6659 7.08732 24C7.34006 23.6368 7.5928 23.2881 7.84555 22.9249L8.21413 22.3874L8.39316 22.1259L8.48793 21.9806C8.75121 21.5884 9.01448 21.2107 9.27775 20.8329C9.8043 20.0775 10.3203 19.3656 10.8574 18.7554C11.0154 18.6828 11.2997 18.2034 11.4366 18.1598C11.6999 17.5496 12.079 17.0266 12.437 16.5472V16.5763L12.595 16.3293C12.6055 16.3293 12.6161 16.3438 12.6161 16.3584C12.7424 16.0097 13.1005 15.6901 13.3532 15.3995L13.3427 15.4286C14.7012 13.5835 15.8175 11.6804 17.2497 9.98063C17.9868 9.29782 18.545 8.06295 19.3559 7.22034C19.577 7.1477 20.9671 5.08474 21.0513 4.8523Z" fill="#7FB89A"/>
<path d="M23.0741 1.78687C23.1045 1.84534 23.0944 1.8161 23.0741 1.78687V1.78687Z" fill="#7FB89A"/>
<path d="M19.2501 4.72174L19.2606 4.70712L19.1765 4.6925L19.2501 4.72174Z" fill="#7FB89A"/>
<path d="M21.1255 2.04834C21.031 2.15067 21.031 2.16529 21.0625 2.16529C21.094 2.13606 21.115 2.0922 21.1255 2.04834Z" fill="#7FB89A"/>
<path d="M23.7153 0.741338C23.7678 0.682861 23.7258 0.682861 23.6838 0.682861C23.6418 0.755958 23.6103 0.799816 23.6103 0.799816C23.6418 0.785196 23.6838 0.770577 23.7153 0.741338Z" fill="#7FB89A"/>
<path d="M23.1038 0.40711L23.0937 0.348633C23.0734 0.40711 23.0836 0.421729 23.1038 0.40711Z" fill="#7FB89A"/>
</svg>
