<svg width="28" height="28" viewBox="0 0 28 28" fill="none" xmlns="http://www.w3.org/2000/svg">
<path d="M15.8408 12.1931C15.8408 12.1438 15.8301 12.1273 15.8301 12.0944L15.8408 12.1931Z" fill="#7FB89A"/>
<path d="M17.3334 10.4296H17.3461C17.3334 10.4113 17.3207 10.393 17.3334 10.4296Z" fill="#7FB89A"/>
<path d="M12.7822 16.8341C12.7715 16.8506 12.7715 16.867 12.7715 16.8835C12.7715 16.867 12.7822 16.8506 12.7822 16.8341Z" fill="#7FB89A"/>
<path d="M5.89844 20.7745C5.91068 20.7745 5.89844 20.7574 5.89844 20.7403V20.7745Z" fill="#7FB89A"/>
<path d="M5.96133 20.7729C5.98496 20.8387 5.92588 20.7894 5.91406 20.7729C5.92588 20.8552 5.96133 20.9045 5.99678 20.9374C6.02041 20.9045 5.96133 20.8223 5.96133 20.7729Z" fill="#7FB89A"/>
<path d="M14.1947 18.4032C14.1947 18.4203 14.1836 18.4374 14.1836 18.4374C14.1947 18.4203 14.1947 18.4032 14.1947 18.4032Z" fill="#7FB89A"/>
<path d="M1.9082 15.5269L1.95547 15.4775C1.93184 15.5104 1.92002 15.5104 1.9082 15.5269Z" fill="#7FB89A"/>
<path d="M15.8178 12.1123L15.8066 12.0781C15.8178 12.0781 15.8178 12.0952 15.8178 12.1123Z" fill="#7FB89A"/>
<path d="M18.6523 8.69486C18.6642 8.71131 18.676 8.72775 18.6878 8.72775L18.6523 8.69486Z" fill="#7FB89A"/>
<path d="M25.7815 0.653791C25.7815 0.653791 25.7696 0.637344 25.7578 0.637344V0.719578C25.7696 0.686684 25.7815 0.670238 25.7815 0.653791Z" fill="#7FB89A"/>
<path d="M20.5801 6.50487C20.5801 6.48853 20.5801 6.48853 20.5683 6.47219C20.521 6.48853 20.4383 6.60294 20.3438 6.75003L20.391 6.83175L20.5801 6.50487Z" fill="#7FB89A"/>
<path d="M24.6828 5.45884L24.3984 5.57324C24.9552 4.67433 24.3344 4.42918 24.7727 3.59564L25.7609 3.66102C25.8556 3.59564 24.6779 3.21973 25.7797 2.45157L25.7916 2.46792C25.8153 2.41889 25.8034 2.40254 25.8864 2.35351L25.6849 2.46792C25.7442 2.32082 25.7679 2.14104 25.8745 1.9776C25.91 1.96126 25.9337 1.9776 25.9574 1.99395L26.2181 1.58535L26.3721 1.55266C26.4195 1.38923 26.2418 1.24213 26.5498 1.02966C26.3721 1.01332 26.609 0.800847 26.5261 0.76816C26.5498 0.76816 26.5972 0.751816 26.6327 0.751816C26.7631 0.55569 26.9882 0.163438 27 0C27 0 26.2655 0.457627 26.0167 0.523002C26.2299 0.294189 26.0522 0.441283 25.9811 0.441283L25.993 0.490315C25.8508 0.621065 25.7916 0.539346 25.7205 0.588378C25.7205 0.588378 25.7323 0.604721 25.7442 0.604721V0.588378C25.756 0.588378 25.7679 0.604721 25.7679 0.621065C25.7797 0.637409 25.7916 0.653753 25.756 0.702784V0.686441C25.7205 0.76816 25.6257 0.866223 25.5783 0.915254L25.5309 0.849879C25.5428 1.09504 24.8082 1.43826 24.6898 1.60169C24.5121 1.66707 24.4528 1.9776 24.2751 2.14104C24.0263 2.43523 24.0856 2.19007 23.9315 2.28814C23.7538 2.43523 24.0145 2.33717 23.9671 2.41889L23.7301 2.56598C23.8249 2.41889 23.742 2.45157 23.7065 2.45157C23.5524 2.6477 23.2207 2.84383 23.2799 3.03995C23.0312 3.25242 22.9956 3.20339 22.9008 3.30145C22.9482 3.28511 23.0193 3.23608 23.043 3.25242C22.9127 3.30145 23.0193 3.3178 23.0548 3.28511C22.9719 3.51392 22.2374 3.90617 22.3203 4.1023L22.2966 4.06961C22.3559 4.21671 22.4743 4.26574 22.4388 4.44552L22.344 4.47821L22.2966 4.64165C22.2137 4.69068 22.2137 4.60896 22.2137 4.60896C22.1071 4.85412 21.8701 5.06659 21.6924 5.27906L22.0952 5.34443C21.9057 5.47518 21.5384 5.68765 21.5739 5.8184L21.4081 5.83474C20.9816 6.03087 21.2659 6.19431 21.1119 6.29237L20.8868 6.37409L21.029 6.17797C20.8394 6.32506 20.7565 6.35775 20.5906 6.43947C20.6025 6.43947 20.6143 6.43947 20.6143 6.43947L20.5906 6.47215C20.6143 6.55387 20.5669 6.70097 20.4603 6.83172C20.3063 7.0115 20.2589 7.25666 19.939 7.45278L19.9627 7.64891L19.7376 7.81235L19.6665 7.71428C19.8442 7.48547 20.1286 7.0115 20.3418 6.70097L20.3181 6.65194C20.1878 6.83172 20.0693 7.07688 19.9864 7.17494C19.9272 7.20763 19.7613 7.25666 19.785 7.09322L19.7731 7.28935C19.3466 7.89407 19.3466 7.89407 18.8254 8.41707H18.8964C18.8254 8.56417 18.7543 8.71126 18.6832 8.67857C18.3989 9.03813 18.079 9.36501 17.8183 9.47942L17.8539 9.64286C17.7946 9.70823 17.5932 9.67554 17.6762 9.85533L17.5932 10.0678C17.5103 10.1659 17.5103 10.2966 17.3681 10.362C17.3563 10.362 17.3563 10.362 17.3444 10.3783C17.3444 10.3783 17.3444 10.3783 17.3563 10.3783C17.143 10.5745 17.4274 10.4764 17.1786 10.6889C17.0601 10.7052 17.2023 10.9177 17.0957 11.0321L16.8824 11.0157C16.6455 11.1792 16.7284 11.3753 16.4677 11.7185C16.3019 11.8329 16.1479 11.7839 16.1479 11.5551C16.136 11.8493 16.1597 11.7185 16.0649 11.9964C15.9939 11.9637 16.0057 11.931 16.0057 11.8329C15.828 11.9473 15.9583 11.9964 15.8635 12.1271C15.9109 12.2742 16.0057 12.503 15.982 12.5521L16.0412 12.5357C15.982 12.7482 15.8872 12.928 15.7214 13.0424L15.6858 12.977L15.5792 13.1895L15.52 13.1241L15.3541 13.4019L15.3896 13.3856C15.3541 13.451 15.2238 13.6798 15.1172 13.7615L15.0935 13.7125C14.7736 13.9086 14.6907 14.3335 14.43 14.7258L14.4063 14.595C14.2523 14.6441 14.4656 14.7585 14.3352 14.8729L14.2523 14.7748C14.2523 15.0363 14.1101 14.9219 14.0035 14.9709L14.1338 15.0527L13.9917 15.1998C13.8258 15.3469 13.7903 15.1507 13.7547 15.0527L13.731 15.2815L13.6244 15.1998C13.6481 15.4286 13.5415 15.2815 13.4704 15.5103C13.423 15.4776 13.4467 15.4122 13.3875 15.4449L13.3045 15.8862L13.3756 15.641L13.4822 15.8372C13.4467 16.1314 13.2927 16.0496 13.2453 16.2294L13.269 16.0987C13.1505 16.3438 13.0913 16.2785 12.9846 16.3602C13.032 16.3602 12.7714 16.3602 12.7358 16.4746C12.7003 16.5399 12.9965 16.4255 12.9491 16.4746C13.0202 16.6053 12.9609 16.8015 12.8188 16.8832C12.8069 16.8668 12.7951 16.8505 12.7951 16.8341C12.7832 16.8832 12.7951 16.9322 12.7358 16.9649L12.6648 16.8015V17.0303C12.5818 17.0793 12.57 17.2754 12.5226 17.1774L12.4375 16.9649L12 17.3571L12.0132 17.5533C12.0724 17.7494 11.8697 17.6922 12 17.8393C11.5 17.8393 11.6222 18.4522 11.5274 18.1907C11.2431 18.5502 11.391 18.444 11 18.8036C10.5 18.8036 10.2251 19.49 10 19.7679C9.63273 20.4053 8.89096 21.059 8.5 21.6964C8.08534 21.8108 8.86727 22.3248 8.5 22.57C8.78028 22.3829 8.5 22.6027 8.5 22.57C8.53554 22.5209 8.5 22.1029 8.5 22.57C8.52369 22.57 8.46446 22.5863 8.5 22.57C8.46446 22.5373 8.68243 22.0677 8.3744 21.9321C8.3744 21.9321 8.46918 22.0202 8.3744 21.8568C8.18485 21.5299 8.00714 21.2031 7.62802 20.9416C7.80573 20.9089 7.46216 20.8598 7.56879 20.6964C7.55694 20.3205 7.55694 20.4632 7.41477 20.3652C7.41477 20.3652 7.56879 20.3652 7.24891 20.1683L6.91719 19.9936C7.17783 19.9773 6.65655 19.9446 6.88164 19.9446C6.45514 19.0784 5.66137 18.2612 5.0927 17.3623L5.08085 17.444C4.92684 17.2152 4.70174 17.019 4.63066 16.7739C4.57142 16.5287 4.14492 16.2018 4.08568 16.1365C4.03829 16.0547 3.89612 16.0384 4.08568 16.1365C3.93167 15.973 3.68287 15.9567 3.5407 15.6298C3.58809 15.3846 3.18218 15.2651 3.3125 15.0853L2.99573 14.9434C2.84171 14.4857 1.95799 13.974 1.78028 13.5C1.78028 13.5 1 13.5 0.5 13.9821L0.284335 14.3008L0 15.0853L0.118473 16.2131L1.45722 17.8475L2.33392 19.4328L4.8337 22.7506L5.10619 22.865C5.2602 23.3226 5.54454 23.6822 5.84072 24.0581C5.98289 24.2379 6.1369 24.434 6.27907 24.6138C6.35015 24.7119 6.40939 24.8099 6.46863 24.908C6.52786 25.0061 6.5871 25.0878 6.63449 25.1695C6.69373 25.2676 6.75296 25.3656 6.80035 25.4637L6.88328 25.3493C7.14392 25.7088 7.09653 25.7742 7.16762 25.905C7.44011 26.2645 8.5 27 8.97323 27C9.25757 26.5914 9.5419 26.1992 9.82624 25.7906L10.2409 25.1858L10.4423 24.8916L10.5489 24.7282C10.8451 24.2869 11.1413 23.862 11.4375 23.437C12.0298 22.5872 12.6104 21.7863 13.2146 21.0999C12.7146 21.5999 13.3923 21.0182 13.2146 21.0999C13.2601 21.0148 13.5108 20.4134 13.2146 21.0999L14.9917 18.6483L15.1931 18.4031C15.1931 18.3868 15.2049 18.4031 15.1931 18.4031C15.3352 18.0109 15.738 17.6513 16.0224 17.3245L16.0105 17.3571C17.5388 15.2815 18.7946 13.1404 20.4059 11.2282C21.2352 10.46 21.8631 9.07082 22.7753 8.12288C23.0241 8.04116 24.588 5.72034 24.6828 5.45884Z" fill="#7FB89A"/>
<path d="M25.959 2.01022C25.9945 2.076 25.9826 2.04311 25.959 2.01022V2.01022Z" fill="#7FB89A"/>
<path d="M21.655 5.31197L21.6668 5.29552L21.5723 5.27907L21.655 5.31197Z" fill="#7FB89A"/>
<path d="M23.7659 2.30438C23.6596 2.4195 23.6596 2.43595 23.695 2.43595C23.7305 2.40306 23.7541 2.35372 23.7659 2.30438Z" fill="#7FB89A"/>
<path d="M26.6807 0.834011C26.7397 0.768225 26.6925 0.768225 26.6452 0.768225C26.5979 0.850458 26.5625 0.899798 26.5625 0.899798C26.5979 0.883352 26.6452 0.866905 26.6807 0.834011Z" fill="#7FB89A"/>
<path d="M25.9935 0.457999L25.9816 0.392212C25.958 0.457999 25.9698 0.474445 25.9935 0.457999Z" fill="#7FB89A"/>
</svg>
