<svg width="24" height="24" viewBox="0 0 24 24" fill="none" xmlns="http://www.w3.org/2000/svg">
<path d="M16.535 13.888C16.5631 13.8733 16.5913 13.8586 16.6054 13.8586L16.535 13.888Z" fill="#E9CB2F"/>
<path d="M17.637 15.2254C17.6509 15.2254 17.6647 15.2107 17.637 15.2254V15.2254Z" fill="#E9CB2F"/>
<path d="M13.5179 11.3162C13.5036 11.3016 13.5036 11.3016 13.4893 11.3016C13.5036 11.3162 13.5179 11.3162 13.5179 11.3162Z" fill="#E9CB2F"/>
<path d="M6.46264 4.48242C6.47672 4.52643 6.4345 4.51176 6.40636 4.49709C6.40636 4.55577 6.4345 4.58511 6.47672 4.59978C6.51893 4.57044 6.44857 4.51176 6.46264 4.48242Z" fill="#E9CB2F"/>
<path d="M12.1767 13.0651C12.1624 13.0651 12.1624 13.0504 12.1481 13.0504C12.1624 13.0651 12.1767 13.0651 12.1767 13.0651Z" fill="#E9CB2F"/>
<path d="M2.85001 1.24921L2.9063 1.2052C2.87815 1.21987 2.86408 1.23454 2.85001 1.24921Z" fill="#E9CB2F"/>
<path d="M16.6065 13.8587L16.6351 13.844C16.6208 13.844 16.6065 13.844 16.6065 13.8587Z" fill="#E9CB2F"/>
<path d="M18.738 16.3718C18.7236 16.3865 18.7093 16.4012 18.7093 16.4158L18.738 16.3718Z" fill="#E9CB2F"/>
<path d="M20.0922 18.1203C20.0922 18.1203 20.1063 18.1203 20.1204 18.1057C20.1063 18.0616 20.05 17.9883 19.9515 17.9003L19.8811 17.9589L20.0922 18.1203Z" fill="#E9CB2F"/>
<path d="M20.4445 21.2803L20.4022 20.9864C20.9947 21.442 21.1217 21.8241 21.672 22.1621H21.6155C21.6579 22.2503 21.9542 22.0005 22.3633 23.0733L22.3492 23.088C22.3774 23.1174 22.4056 23.088 22.4198 23.1615L22.3633 22.9557C22.4621 22.9998 22.5891 22.9998 22.7019 23.088C22.716 23.1174 22.6878 23.1615 22.6737 23.1762L22.9418 23.3966V23.5583C23.0547 23.5877 23.1816 23.3819 23.2945 23.6758C23.3227 23.4848 23.4638 23.7052 23.492 23.6171C23.492 23.6465 23.492 23.6905 23.492 23.7199C23.619 23.8228 23.8871 24.0139 24 23.9992C24 23.9992 23.7601 23.279 23.746 23.0292C23.8871 23.235 23.8024 23.0586 23.8024 22.9851L23.7601 22.9998C23.6896 22.8675 23.7601 22.7941 23.7178 22.7206C23.7178 22.7206 23.7037 22.7353 23.7037 22.75H23.7178C23.7037 22.7647 23.7037 22.7794 23.6896 22.7794C23.6755 22.7941 23.6614 22.8088 23.6331 22.7794H23.6472C23.5908 22.75 23.5344 22.6618 23.5062 22.6324L23.5626 22.5736C23.3792 22.6177 23.224 21.8829 23.1252 21.78C23.097 21.6037 22.8854 21.5743 22.7866 21.4126C22.6032 21.1922 22.7725 21.2216 22.716 21.0599C22.6314 20.8982 22.6737 21.1628 22.6173 21.1187L22.5467 20.8835C22.6455 20.957 22.6314 20.8835 22.6314 20.8395C22.5044 20.6925 22.4056 20.3839 22.2505 20.472C22.1235 20.2369 22.1799 20.1781 22.1094 20.1046C22.1094 20.1487 22.1517 20.2222 22.1235 20.2516C22.1094 20.1193 22.0811 20.2369 22.0953 20.2663C21.9401 20.2222 21.7425 19.4874 21.6014 19.605L21.6297 19.5756C21.5027 19.649 21.4603 19.796 21.3334 19.7813L21.3193 19.6784L21.2064 19.649C21.1923 19.5609 21.2346 19.5609 21.2487 19.5462C21.0794 19.4727 20.9665 19.2522 20.8254 19.0906L20.7267 19.5315C20.6561 19.3404 20.5574 18.9877 20.4445 19.0465L20.4586 18.8701C20.3739 18.4439 20.2046 18.782 20.1623 18.6203L20.1341 18.3852L20.2611 18.5174C20.1764 18.3411 20.1623 18.2529 20.12 18.0912C20.12 18.1059 20.12 18.1059 20.12 18.1206L20.1059 18.1059C20.0494 18.15 19.9507 18.1206 19.8519 18.0177C19.739 17.8855 19.5697 17.8561 19.471 17.5475L19.3299 17.6063L19.2311 17.4005L19.3017 17.3123C19.4428 17.4593 19.7532 17.7091 19.9507 17.8855L19.993 17.8561C19.8801 17.7385 19.7108 17.6503 19.6544 17.5769C19.6262 17.5181 19.6262 17.3417 19.739 17.3564L19.598 17.3711C19.217 17.0037 19.2029 17.0184 18.8925 16.5334V16.6069C18.7937 16.5481 18.695 16.504 18.7373 16.4158C18.5116 16.166 18.314 15.8721 18.2576 15.6075L18.1306 15.681C18.0883 15.6222 18.1447 15.4018 17.9895 15.5194L17.8484 15.4606C17.792 15.3871 17.6932 15.4018 17.665 15.2695C17.665 15.2548 17.665 15.2548 17.665 15.2401C17.665 15.2401 17.665 15.2401 17.665 15.2548C17.5521 15.0638 17.5804 15.343 17.4534 15.1079C17.4675 14.9756 17.27 15.1814 17.2135 15.0638L17.2559 14.8286C17.1712 14.5935 17.016 14.7111 16.7903 14.4906C16.7338 14.329 16.7903 14.1526 16.9596 14.1232C16.7338 14.1526 16.8326 14.1673 16.6492 14.0938C16.6774 14.0203 16.7056 14.0203 16.7761 14.0056C16.7197 13.8293 16.6633 13.9909 16.5786 13.8881C16.4657 13.9616 16.2823 14.0938 16.2541 14.0791V14.1379C16.113 14.1085 15.986 14.0203 15.9296 13.8734L15.986 13.8293L15.845 13.7411L15.9014 13.6676L15.718 13.5207V13.5648C15.6756 13.5354 15.5204 13.4325 15.4781 13.3296L15.5204 13.3002C15.4217 12.9916 15.1113 12.9622 14.8573 12.7418L14.9561 12.6977C14.942 12.536 14.8291 12.7858 14.7586 12.6536L14.8432 12.5507C14.6457 12.5948 14.7586 12.4184 14.7303 12.3156L14.6457 12.4625L14.561 12.3303C14.4764 12.1686 14.6175 12.1098 14.7021 12.051L14.5328 12.0657L14.6175 11.9482C14.4482 12.0069 14.5751 11.8747 14.4058 11.8306C14.434 11.7865 14.4764 11.7865 14.4623 11.7277L14.1519 11.6983L14.3212 11.7424L14.166 11.8894C13.9543 11.9041 14.0249 11.7277 13.912 11.6983H14.0108C13.8415 11.6101 13.8979 11.5367 13.8556 11.4338C13.8556 11.4779 13.8415 11.566 13.7709 11.5367C13.7286 11.5073 13.7991 11.4632 13.785 11.4044C13.6863 11.4926 13.5452 11.4632 13.5029 11.3309C13.517 11.3162 13.5311 11.3015 13.5452 11.3015C13.5029 11.3015 13.4746 11.3162 13.4605 11.2574L13.5875 11.1692L13.4182 11.2133C13.4041 11.1399 13.2489 11.1545 13.3335 11.0811H13.3759L12.9808 10.6843L13.0655 10.5814C12.9103 10.6696 12.9103 10.3462 12.7833 10.5079C12.7974 10.3609 12.4588 10.3022 12.6563 10.1699C12.4306 9.92005 12.1484 9.96414 11.9368 9.59674C11.965 9.3469 11.6405 9.11176 11.4712 8.9207C11.0479 8.62677 10.7657 8.45042 10.3424 8.1418C10.3142 7.7156 9.72164 7.67151 9.58055 7.3188L9.43946 7.3335C9.39713 7.03957 9.00208 6.96609 8.90331 6.61337C8.81866 6.59868 8.77633 6.58398 8.76222 6.56928C8.76222 6.58398 8.77633 6.61337 8.71989 6.67216C8.69168 6.56928 8.52237 6.4958 8.62113 6.39293H8.64935C8.74811 6.29005 8.4095 6.24596 8.42361 6.0843L8.35306 6.23127L8.2543 6.099L8.31073 6.1137C7.54885 5.84916 7.64761 5.26131 6.94216 4.99677C7.12558 4.93799 6.78696 4.96738 6.89983 4.82042C6.92805 4.52649 6.63176 4.62936 6.49067 4.57058C6.49067 4.57058 6.47656 4.58528 6.46245 4.58528L6.29314 4.39422C6.56121 4.32074 6.03918 4.40892 6.26492 4.36483C5.9122 3.77698 5.19264 3.30669 4.69882 2.71884L4.68471 2.79232C4.55773 2.64536 4.33199 2.54248 4.28966 2.36612C4.24733 2.18977 3.96515 2.24855 3.90872 2.21916C3.7253 2.18977 3.75352 1.92523 3.79584 1.98402C3.65475 1.88114 3.40079 1.92523 3.28792 1.70479C3.35846 1.49904 2.69534 1.39616 2.83643 1.21981L2.82232 1.2345C2.70945 0.911184 2.32851 0.896488 2.18742 0.573168C2.18742 0.573168 2.20152 0.558472 2.21563 0.558472L1.31266 0.617257L0.95993 1.30799L0.974039 2.16038L2.17331 3.15973L2.90698 4.20317L5.12209 6.26066L5.39016 6.29005C5.61591 6.922 6.39191 7.21592 6.71641 7.81848L6.81518 7.7156C6.95627 7.83317 6.88572 7.89196 6.89983 7.93605C8.12732 9.09706 9.49589 10.1552 10.4553 11.3603C10.4976 11.5367 10.8504 11.8012 10.8645 11.9628C11.3301 12.1833 11.711 12.536 12.0496 12.9034H12.0214L12.2048 13.0504C12.2048 13.0651 12.1907 13.0798 12.1766 13.0798C12.4447 13.168 12.6563 13.5501 12.8538 13.8146H12.8256C14.1378 15.1373 15.5628 16.1513 16.762 17.6063C17.2276 18.3852 18.1588 18.8407 18.7373 19.6784C18.7655 19.8842 20.2611 21.2069 20.4445 21.2803Z" fill="#E9CB2F"/>
<path d="M20.8249 19.0758C20.8249 19.0905 20.8249 19.0905 20.8249 19.0758L20.8536 18.9878L20.8249 19.0758Z" fill="#E9CB2F"/>
<path d="M22.7569 20.8982C22.6865 20.7955 22.6724 20.8101 22.6724 20.8395C22.6865 20.8688 22.7147 20.8982 22.7569 20.8982Z" fill="#E9CB2F"/>
<path d="M17.3264 8.00999C17.3414 8.00999 17.3414 7.9941 17.3264 8.00999V8.00999Z" fill="#E9CB2F"/>
<path d="M10.0172 15.9309C10.0172 15.9309 10.0172 15.9456 10.0172 15.9309C10.0315 15.9602 10.0315 15.9896 10.0458 16.0043L10.0172 15.9309Z" fill="#E9CB2F"/>
<path d="M8.6913 17.0477C8.6913 17.0624 8.70567 17.0771 8.6913 17.0477V17.0477Z" fill="#E9CB2F"/>
<path d="M12.6 12.8593C12.6138 12.8446 12.6138 12.8446 12.6138 12.83C12.6 12.8446 12.6 12.8446 12.6 12.8593Z" fill="#E9CB2F"/>
<path d="M19.4139 5.61401C19.4139 5.61401 19.4139 5.62868 19.4139 5.61401C19.4139 5.61401 19.4283 5.61401 19.4426 5.61401H19.4139Z" fill="#E9CB2F"/>
<path d="M19.427 5.67269C19.3847 5.68736 19.4129 5.62868 19.4129 5.61401C19.3566 5.61401 19.3284 5.64335 19.3144 5.68736C19.3425 5.73137 19.3847 5.67269 19.427 5.67269Z" fill="#E9CB2F"/>
<path d="M10.9626 11.4043C10.9626 11.3897 10.9765 11.3897 10.9765 11.375C10.9626 11.3897 10.9626 11.4043 10.9626 11.4043Z" fill="#E9CB2F"/>
<path d="M22.6588 1.99872L22.7018 2.0574C22.6875 2.02806 22.6731 2.01339 22.6588 1.99872Z" fill="#E9CB2F"/>
<path d="M10.0452 16.0044L10.0591 16.0337C10.0591 16.0337 10.0591 16.0191 10.0452 16.0044Z" fill="#E9CB2F"/>
<path d="M7.56332 18.1793C7.54899 18.1646 7.53466 18.15 7.52032 18.15L7.56332 18.1793Z" fill="#E9CB2F"/>
<path d="M5.82681 19.531C5.82681 19.531 5.82681 19.5457 5.84089 19.5604C5.8831 19.5457 5.95346 19.487 6.0379 19.3843L5.98161 19.311L5.82681 19.531Z" fill="#E9CB2F"/>
<path d="M2.76537 19.8107L3.04755 19.7666C2.58195 20.3692 2.21512 20.4867 1.8765 21.0599V21.0011C1.77774 21.0452 2.01759 21.3538 0.973523 21.7653L0.959414 21.7506C0.931196 21.78 0.959414 21.8094 0.87476 21.8241L1.07229 21.7653C1.02996 21.8682 1.01585 22.0005 0.931196 22.118C0.902978 22.1327 0.860651 22.1033 0.846542 22.0886L0.620797 22.3679H0.465598C0.43738 22.4854 0.634906 22.6324 0.338617 22.7353C0.522034 22.7794 0.310399 22.9116 0.395053 22.941C0.366835 22.941 0.324508 22.941 0.29629 22.941C0.183417 23.0733 0 23.3378 0 23.4554C0 23.4554 0.705451 23.2203 0.945305 23.2203C0.747778 23.3672 0.917087 23.279 0.987632 23.279L0.973523 23.235C1.1005 23.1615 1.17105 23.2349 1.24159 23.2056C1.24159 23.2056 1.22749 23.1909 1.21338 23.1909V23.2056C1.19927 23.1909 1.18516 23.1909 1.18516 23.1762C1.17105 23.1615 1.15694 23.1468 1.19927 23.1174V23.1321C1.22749 23.0733 1.31214 23.0145 1.35447 22.9851L1.4109 23.0439C1.36858 22.8528 2.07403 22.7059 2.1869 22.6177C2.35621 22.5883 2.38443 22.3679 2.55373 22.2797C2.76537 22.0886 2.73715 22.265 2.89235 22.2209C3.04755 22.1327 2.79359 22.1768 2.83591 22.118L3.06166 22.0445C2.977 22.1474 3.06166 22.1327 3.10399 22.1327C3.24508 22.0152 3.55547 21.9123 3.47082 21.7506C3.69656 21.633 3.753 21.6771 3.82355 21.6037C3.78122 21.6037 3.71067 21.633 3.68246 21.6184C3.80944 21.6037 3.69656 21.5743 3.66835 21.589C3.72478 21.4273 4.43023 21.2509 4.33147 21.0893L4.35969 21.1187C4.28914 20.9864 4.14805 20.9276 4.17627 20.7954H4.27503L4.30325 20.6778C4.38791 20.6631 4.38791 20.7072 4.40202 20.7219C4.47256 20.5455 4.69831 20.4279 4.85351 20.2957L4.43023 20.1781C4.61365 20.1193 4.96638 20.0164 4.89583 19.8989L5.06514 19.9136C5.48841 19.8401 5.1639 19.649 5.3191 19.6049L5.54485 19.5756L5.41787 19.7078C5.58717 19.6343 5.67183 19.6049 5.84114 19.5756C5.82703 19.5756 5.82703 19.5756 5.81292 19.5756L5.82703 19.5609C5.79881 19.4874 5.82703 19.3992 5.91168 19.311C6.05277 19.1934 6.08099 19.0171 6.37728 18.9289L6.32084 18.7673L6.53248 18.6791L6.61713 18.7673C6.46193 18.9142 6.22208 19.2375 6.03866 19.4286L6.06688 19.4727C6.17975 19.3551 6.26441 19.1935 6.34906 19.12C6.4055 19.1053 6.57481 19.0906 6.5607 19.2228L6.54659 19.0759C6.91342 18.6791 6.91342 18.6791 7.37902 18.3705H7.30848C7.36491 18.2676 7.42135 18.1647 7.506 18.2088C7.74586 17.9737 8.04214 17.7826 8.29611 17.7238L8.23967 17.5915C8.29611 17.5475 8.50774 17.6209 8.39487 17.4593L8.45131 17.3123C8.52185 17.2535 8.50774 17.1507 8.64883 17.1213C8.66294 17.1213 8.66294 17.1213 8.67705 17.1213C8.67705 17.1213 8.67705 17.1213 8.66294 17.1213C8.86047 17.0037 8.57829 17.0331 8.80403 16.9155C8.93101 16.9302 8.7476 16.7245 8.84636 16.6657L9.0721 16.7245C9.29785 16.651 9.19908 16.4746 9.41072 16.2395C9.56592 16.1807 9.73523 16.2395 9.76345 16.4305C9.73523 16.1954 9.72112 16.2983 9.79166 16.1072C9.86221 16.1366 9.86221 16.166 9.87632 16.2395C10.0456 16.1807 9.90454 16.1219 9.98919 16.0337C9.91865 15.9015 9.79166 15.7251 9.81988 15.681H9.76345C9.80577 15.5341 9.87632 15.4018 10.0315 15.343L10.0738 15.4018L10.1585 15.2548L10.229 15.3136L10.3701 15.1226H10.3278C10.356 15.0785 10.4548 14.9168 10.5677 14.8874L10.5959 14.9315C10.9063 14.8286 10.9345 14.52 11.1461 14.2555L11.1885 14.3583C11.3437 14.3436 11.1038 14.2261 11.2308 14.1673L11.3154 14.2555C11.2872 14.0497 11.4424 14.1673 11.5553 14.1526L11.4142 14.0644L11.5412 13.9762C11.6964 13.8881 11.7528 14.0497 11.7951 14.1232V13.9468L11.908 14.035C11.8516 13.8587 11.9927 13.9909 12.035 13.8146C12.0773 13.844 12.0773 13.8881 12.1338 13.8734L12.162 13.55L12.1197 13.7264L11.9927 13.5647C11.9927 13.3443 12.162 13.4325 12.1902 13.3002L12.1761 13.4031C12.2607 13.2414 12.3313 13.2855 12.4442 13.2561C12.4018 13.2561 12.3172 13.2414 12.3595 13.1679C12.3877 13.1239 12.4301 13.1973 12.4865 13.1826C12.4018 13.0798 12.4442 12.9181 12.5711 12.8887C12.5853 12.9034 12.5994 12.9181 12.5994 12.9328C12.5994 12.8887 12.5853 12.8593 12.6558 12.8446L12.7405 12.9769L12.7122 12.8005C12.7828 12.7858 12.7828 12.6242 12.8392 12.7124V12.7564L13.2202 12.4184L13.3048 12.5066C13.2202 12.3449 13.5447 12.3449 13.3895 12.2127C13.5306 12.2274 13.6011 11.8747 13.7281 12.0951C13.9679 11.86 13.9397 11.566 14.3066 11.3603C14.5464 11.4044 14.7863 11.0664 14.9697 10.89C15.266 10.4638 15.4494 10.1699 15.7598 9.74369C16.1689 9.7143 16.2395 9.11174 16.5781 8.97948L16.564 8.83251C16.8462 8.80312 16.9308 8.39162 17.2694 8.28875C17.2836 8.20057 17.3118 8.15648 17.3118 8.14178C17.2977 8.14178 17.2694 8.14178 17.213 8.0977C17.3118 8.0683 17.3964 7.89195 17.4811 8.00952V8.03891C17.5657 8.15648 17.6222 7.78907 17.7774 7.80377L17.6363 7.73029L17.7774 7.62741L17.7633 7.6862C18.0454 6.90729 18.6098 7.01016 18.8779 6.29004C18.9343 6.4811 18.9061 6.12838 19.0472 6.24595C19.3294 6.29004 19.2447 5.98142 19.3011 5.81976C19.3011 5.81976 19.287 5.80506 19.287 5.79037L19.4705 5.62871C19.5269 5.90794 19.4705 5.36417 19.4987 5.59931C20.0771 5.2466 20.5427 4.49709 21.1353 4.01211L21.0648 3.99741C21.2059 3.86514 21.3187 3.6447 21.488 3.60061C21.6574 3.55652 21.6009 3.26259 21.6432 3.2185C21.6856 3.02745 21.9254 3.07154 21.869 3.11563C21.9678 2.96867 21.9395 2.70413 22.1653 2.60126C22.3628 2.68943 22.4898 1.99871 22.645 2.14567L22.6309 2.13097C22.9554 2.0281 22.9695 1.6166 23.294 1.48433C23.294 1.48433 23.294 1.49903 23.3081 1.51373V0.543765L22.6591 0.146964L21.8549 0L20.8531 1.23449L19.8232 1.96931L17.7633 4.23255L17.7209 4.51178C17.1001 4.73223 16.8039 5.52583 16.2113 5.84915L16.2959 5.96672C16.1689 6.09899 16.1266 6.02551 16.0702 6.04021C14.9132 7.2894 13.841 8.68555 12.6558 9.65551C12.4865 9.6996 12.2184 10.0523 12.0632 10.067C11.8375 10.552 11.4706 10.9341 11.1179 11.2721V11.2427L10.9768 11.4338C10.9627 11.4338 10.9486 11.4191 10.9486 11.4044C10.8498 11.6836 10.483 11.8894 10.2149 12.0951V12.0657C8.88869 13.4031 7.85873 14.858 6.43372 16.0631C5.67183 16.5187 5.19212 17.4887 4.3738 18.0618C4.16216 18.1059 2.83591 19.6343 2.76537 19.8107Z" fill="#E9CB2F"/>
<path d="M0.847507 22.0886C0.804515 22.0446 0.818846 22.0592 0.847507 22.0886V22.0886Z" fill="#E9CB2F"/>
<path d="M4.86774 20.281L4.95217 20.3103L4.86774 20.281Z" fill="#E9CB2F"/>
<path d="M3.0619 22.2354C3.16041 22.1621 3.14634 22.1474 3.11819 22.1474C3.09005 22.1767 3.0619 22.2061 3.0619 22.2354Z" fill="#E9CB2F"/>
</svg>
